<svg width="24" height="24" viewBox="0 0 24 24" fill="none" xmlns="http://www.w3.org/2000/svg">
<path d="M20.25 1.5H3.75C3.15326 1.5 2.58097 1.73705 2.15901 2.15901C1.73705 2.58097 1.5 3.15326 1.5 3.75L1.5 20.25C1.5 20.8467 1.73705 21.419 2.15901 21.841C2.58097 22.2629 3.15326 22.5 3.75 22.5H20.25C20.8467 22.5 21.419 22.2629 21.841 21.841C22.2629 21.419 22.5 20.8467 22.5 20.25V3.75C22.5 3.15326 22.2629 2.58097 21.841 2.15901C21.419 1.73705 20.8467 1.5 20.25 1.5ZM19.4817 15.908L18.7786 18.9548C18.7429 19.1097 18.6557 19.248 18.5313 19.347C18.407 19.446 18.2527 19.4999 18.0938 19.5C10.5938 19.5 4.5 13.4198 4.5 5.90625C4.50558 5.74878 4.56156 5.59725 4.65969 5.47397C4.75783 5.35068 4.89294 5.26216 5.04516 5.22141L8.09203 4.51828C8.144 4.50729 8.19689 4.50117 8.25 4.5C8.38597 4.50686 8.51762 4.55 8.63129 4.62492C8.74496 4.69985 8.8365 4.80384 8.89641 4.92609L10.3027 8.20734C10.3371 8.29581 10.3563 8.38949 10.3594 8.48438C10.3479 8.69252 10.2554 8.88789 10.1016 9.02859L8.32547 10.4817C9.40163 12.7626 11.2374 14.5984 13.5183 15.6745L14.9714 13.8984C15.1121 13.7446 15.3075 13.6521 15.5156 13.6406C15.6105 13.6437 15.7042 13.6629 15.7927 13.6973L19.0739 15.1036C19.1962 15.1634 19.3003 15.2549 19.3752 15.3686C19.4501 15.4823 19.4932 15.614 19.5 15.75C19.4991 15.8031 19.4929 15.856 19.4817 15.908Z" fill="#CEAB6B"/>
</svg>
