<svg width="24" height="24" viewBox="0 0 24 24" fill="none" xmlns="http://www.w3.org/2000/svg">
<path d="M12 1.3335C9.10042 1.3335 6.75 3.68391 6.75 6.5835C6.75 8.92766 10.1812 13.2002 11.4958 14.751C11.7621 15.0652 12.2383 15.0652 12.5042 14.751C13.8188 13.2002 17.25 8.92766 17.25 6.5835C17.25 3.68391 14.8996 1.3335 12 1.3335ZM12 8.3335C11.0333 8.3335 10.25 7.55016 10.25 6.5835C10.25 5.61683 11.0333 4.8335 12 4.8335C12.9667 4.8335 13.75 5.61683 13.75 6.5835C13.75 7.55016 12.9667 8.3335 12 8.3335ZM0.838333 10.3314C0.590908 10.4304 0.378804 10.6012 0.229379 10.8218C0.0799536 11.0425 5.92587e-05 11.3028 0 11.5693L0 21.9993C0 22.471 0.47625 22.7935 0.914167 22.6185L6.66667 20.0002V10.2885C6.29833 9.62266 5.99708 8.97433 5.78125 8.35433L0.838333 10.3314ZM12 16.3197C11.4138 16.3197 10.8592 16.0622 10.4788 15.6131C9.65958 14.6464 8.78833 13.5456 8 12.4164V19.9997L16 22.6664V12.4168C15.2117 13.5456 14.3408 14.6468 13.5213 15.6135C13.1408 16.0622 12.5863 16.3197 12 16.3197ZM23.0858 8.0485L17.3333 10.6668V22.6668L23.1617 20.3356C23.4091 20.2367 23.6213 20.0659 23.7707 19.8452C23.9201 19.6245 24 19.3642 24 19.0977V8.66766C24 8.196 23.5238 7.8735 23.0858 8.0485Z" fill="#874C62"/>
</svg>
