<svg width="24" height="24" viewBox="0 0 24 24" fill="none" xmlns="http://www.w3.org/2000/svg">
<path d="M6.66667 20.0002C5.6 20.0002 4.53333 19.0668 4 18.6668C1.33333 16.8002 0.533333 16.1335 0 15.7335V21.3335C0 22.0697 0.597083 22.6668 1.33333 22.6668H12C12.7362 22.6668 13.3333 22.0697 13.3333 21.3335V15.7335C12.8 16.1335 12 16.8002 9.33333 18.6668C8.8 19.0668 7.73333 20.0002 6.66667 20.0002ZM12 12.0002H1.33333C0.597083 12.0002 0 12.5972 0 13.3335V14.0002C1.06667 14.8002 0.933333 14.8002 4.8 17.6002C5.2 17.8668 6 18.6668 6.66667 18.6668C7.33333 18.6668 8.13333 17.8668 8.53333 17.7335C12.4 14.9335 12.2667 14.9335 13.3333 14.1335V13.3335C13.3333 12.5972 12.7362 12.0002 12 12.0002ZM22.6667 8.00016H9.33333C8.59708 8.00016 8 8.59725 8 9.3335V10.6668H12C13.3837 10.6668 14.5246 11.726 14.6546 13.076L14.6667 13.0668V18.6668H22.6667C23.4029 18.6668 24 18.0697 24 17.3335V9.3335C24 8.59725 23.4029 8.00016 22.6667 8.00016ZM21.3333 13.3335H18.6667V10.6668H21.3333V13.3335ZM6.66667 9.3335C6.66667 7.86308 7.86292 6.66683 9.33333 6.66683H18.6667V2.66683C18.6667 1.93058 18.0696 1.3335 17.3333 1.3335H4C3.26375 1.3335 2.66667 1.93058 2.66667 2.66683V10.6668H6.66667V9.3335Z" fill="#CEAB6B"/>
</svg>
