<svg width="26" height="26" viewBox="0 0 26 26" fill="none" xmlns="http://www.w3.org/2000/svg">
<path d="M5.7589 12.1284C5.68864 11.6755 5.65219 11.2116 5.65219 10.7393C5.65219 5.7447 9.72773 1.6958 14.7552 1.6958C19.7826 1.6958 23.8581 5.7447 23.8581 10.7393C23.8581 11.8675 23.6502 12.9476 23.2703 13.9435C23.1914 14.1504 23.1518 14.2538 23.134 14.3345C23.1162 14.4145 23.1093 14.4708 23.1074 14.5528C23.1055 14.6354 23.1167 14.7265 23.1392 14.9087L23.5942 18.6054C23.6434 19.0056 23.6681 19.2057 23.6015 19.3512C23.5432 19.4787 23.4396 19.5798 23.3109 19.6352C23.1639 19.6984 22.9644 19.6691 22.5655 19.6107L18.9648 19.0829C18.7767 19.0553 18.6828 19.0415 18.5971 19.0421C18.5124 19.0425 18.4538 19.0488 18.3709 19.0662C18.2871 19.0838 18.18 19.1239 17.9661 19.2041C16.9675 19.5781 15.8854 19.7828 14.7552 19.7828C14.2824 19.7828 13.8182 19.7469 13.3648 19.678M7.49663 24.3045C10.8483 24.3045 13.5653 21.5209 13.5653 18.0871C13.5653 14.6533 10.8483 11.8697 7.49663 11.8697C4.145 11.8697 1.42798 14.6533 1.42798 18.0871C1.42798 18.7773 1.53777 19.4413 1.74042 20.0616C1.82608 20.3239 1.86892 20.455 1.88298 20.5446C1.89765 20.6382 1.90022 20.6906 1.89476 20.7851C1.88952 20.8757 1.86687 20.978 1.82157 21.1826L1.13049 24.3045L4.51592 23.8421C4.70071 23.8169 4.7931 23.8043 4.87378 23.8048C4.95873 23.8054 5.00383 23.81 5.08714 23.8267C5.16626 23.8424 5.28389 23.8839 5.51915 23.9669C6.13899 24.1857 6.80427 24.3045 7.49663 24.3045Z" stroke="white" stroke-width="2.26087" stroke-linecap="round" stroke-linejoin="round"/>
</svg>
