<svg width="10" height="10" viewBox="0 0 10 10" fill="none" xmlns="http://www.w3.org/2000/svg">
<path d="M5.58573 4.97908L9.85351 9.2887C10.0209 9.45607 10.0209 9.70711 9.85351 9.87448C9.76983 9.95816 9.68615 10 9.56062 10C9.47694 10 9.35142 9.95816 9.26774 9.87448L4.99995 5.60669L0.732171 9.87448C0.648489 9.95816 0.522966 10 0.439284 10C0.313761 10 0.230079 9.95816 0.146397 9.87448C-0.020967 9.70711 -0.020967 9.45607 0.146397 9.2887L4.41418 4.97908L0.146397 0.711297C-0.020967 0.543933 -0.020967 0.292887 0.146397 0.125523C0.313761 -0.041841 0.564807 -0.041841 0.732171 0.125523L4.99995 4.39331L9.26774 0.125523C9.4351 -0.041841 9.68615 -0.041841 9.85351 0.125523C10.0209 0.292887 10.0209 0.543933 9.85351 0.711297L5.58573 4.97908Z" fill="black"/>
</svg>
